# xmcd
#
# Track frame offsets:
#	150
#	31002
#	54355
#	79045
#	98840
#	118080
#	144880
#	160782
#	180747
#	207672
#
# Disc length: 3058 seconds
#
# Revision: 0
# Processed by: cddbd v1.5.2PL0 Copyright (c) Steve Scherf et al.
# Submitted via: EasyCDDAExtractor 12.0.1.1
#
DISCID=7b0bf00a
DTITLE=Various Artist - Cafe Arabia: Raï Roots and Mint Tea
DYEAR=1900
DGENRE=
TTITLE0=Cheikh Meftah - Aïnik
TTITLE1=Cheikh Djelloul Remchaoui - Harfek
TTITLE2=Cheb Khaled - Chabrassi
TTITLE3=Johanne Hayat - Parfums d'Orient
TTITLE4=Malik - N'Touma
TTITLE5=Cheb Tati - Jamais je t'oublie
TTITLE6=Raïna Raï - Hagda
TTITLE7=Haïm - Wahlaich
TTITLE8=Cheikha Remitti - Guendouzi Mama
TTITLE9=Cheikh Djelloul Remchaoui - Adieu
EXTD=
EXTT0=
EXTT1=
EXTT2=
EXTT3=
EXTT4=
EXTT5=
EXTT6=
EXTT7=
EXTT8=
EXTT9=
PLAYORDER=
